<?xml version="1.0" encoding="UTF-8"?>
<svg version="1.1" xmlns="http://www.w3.org/2000/svg" width="70" height="70">
<path d="M0 0 C23.1 0 46.2 0 70 0 C70 23.1 70 46.2 70 70 C46.9 70 23.8 70 0 70 C0 46.9 0 23.8 0 0 Z " fill="#B12689" transform="translate(0,0)"/>
<path d="M0 0 C1.9375 1.5625 1.9375 1.5625 3 3 C1.35 3 -0.3 3 -2 3 C-2 3.66 -2 4.32 -2 5 C-1.01 5.33 -0.02 5.66 1 6 C0.67 6.33 0.34 6.66 0 7 C0.66 7.66 1.32 8.32 2 9 C0.68 9 -0.64 9 -2 9 C-1.21625 9.763125 -0.4325 10.52625 0.375 11.3125 C5 16.04761905 5 16.04761905 5 19 C5.33 19.33 5.66 19.66 6 20 C6.33 18.35 6.66 16.7 7 15 C7.99 15 8.98 15 10 15 C9.63157895 22.24561404 9.63157895 22.24561404 6.75 25.6875 C5.8425 26.450625 4.935 27.21375 4 28 C3.236875 28.825 2.47375 29.65 1.6875 30.5 C-5.18700421 36.89488764 -13.50622441 40.93476444 -23 41.375 C-34.16834342 40.83568362 -42.97138077 35.45729506 -50.5 27.5 C-53.39654735 24.10345341 -55 21.62229978 -55 17 C-54.01 16.67 -53.02 16.34 -52 16 C-51.67 17.32 -51.34 18.64 -51 20 C-50.34 19.34 -49.68 18.68 -49 18 C-49 17.01 -49 16.02 -49 15 C-47.43230936 12.87603204 -45.86847311 10.86847311 -44 9 C-44.99 8.67 -45.98 8.34 -47 8 C-46.34 7.67 -45.68 7.34 -45 7 C-45.33 6.34 -45.66 5.68 -46 5 C-45.01 5 -44.02 5 -43 5 C-43 4.34 -43 3.68 -43 3 C-44.65 3 -46.3 3 -48 3 C-47.67 2.34 -47.34 1.68 -47 1 C-44.36 1 -41.72 1 -39 1 C-39 1.66 -39 2.32 -39 3 C-38.01 3.33 -37.02 3.66 -36 4 C-35.87625 4.639375 -35.7525 5.27875 -35.625 5.9375 C-35.1900842 8.22365713 -35.1900842 8.22365713 -32.8125 9.25 C-29.73957207 10.06944745 -27.16828283 10.13775143 -24 10 C-20.13304322 10 -17.4911548 11.41909971 -14 13 C-12.09944543 9.42007609 -10.94639176 5.79481178 -9.78125 1.92578125 C-7.97843875 -2.51814848 -3.89777009 -0.82058318 0 0 Z " fill="#2F231C" transform="translate(58,29)"/>
<path d="M0 0 C6.46138369 4.06594388 9.06431207 7.11254613 13 14 C6.73 14 0.46 14 -6 14 C-7.32 11.36 -8.64 8.72 -10 6 C-11.57922406 4.42077594 -13.19443874 4.792341 -15.375 4.75 C-16.16648437 4.72421875 -16.95796875 4.6984375 -17.7734375 4.671875 C-20.01212885 4.84422146 -20.01212885 4.84422146 -21.6640625 6.078125 C-23.58537804 8.62120636 -23.58537804 8.62120636 -25 15 C-35.395 15.495 -35.395 15.495 -46 16 C-43.4358297 10.8716594 -42.04181187 8.65687741 -38 5 C-37.2575 4.319375 -36.515 3.63875 -35.75 2.9375 C-25.43279093 -4.33144275 -11.46618253 -6.15736178 0 0 Z " fill="#34013C" transform="translate(51,5)"/>
<path d="M0 0 C1.50433594 0.01353516 1.50433594 0.01353516 3.0390625 0.02734375 C3.80992188 0.03894531 4.58078125 0.05054687 5.375 0.0625 C5.375 0.7225 5.375 1.3825 5.375 2.0625 C4.385 2.3925 3.395 2.7225 2.375 3.0625 C3.695 3.7225 5.015 4.3825 6.375 5.0625 C5.055 5.3925 3.735 5.7225 2.375 6.0625 C1.59217352 7.85449472 1.59217352 7.85449472 1.375 10.0625 C2.7666876 12.19594768 2.7666876 12.19594768 4.375 14.0625 C4.375 14.7225 4.375 15.3825 4.375 16.0625 C2.725 16.0625 1.075 16.0625 -0.625 16.0625 C0.3959375 17.17625 0.3959375 17.17625 1.4375 18.3125 C3.375 21.0625 3.375 21.0625 3.125 23.375 C2.8775 23.931875 2.63 24.48875 2.375 25.0625 C-0.625 21.3125 -0.625 21.3125 -0.625 19.0625 C-2.2704378 17.37487149 -3.93788577 15.7084651 -5.625 14.0625 C-6.12 13.0725 -6.12 13.0725 -6.625 12.0625 C-5.635 12.0625 -4.645 12.0625 -3.625 12.0625 C-4.285 11.4025 -4.945 10.7425 -5.625 10.0625 C-5.625 9.0725 -5.625 8.0825 -5.625 7.0625 C-4.305 6.7325 -2.985 6.4025 -1.625 6.0625 C-5.45489106 4.26019832 -8.40621808 3.86627759 -12.625 4.0625 C-12.7075 5.279375 -12.79 6.49625 -12.875 7.75 C-13.36258372 11.84715871 -14.72010536 14.06389908 -17.625 17.0625 C-21.35987777 16.5645163 -23.43737635 16.18758244 -26.625 14.0625 C-26.955 14.3925 -27.285 14.7225 -27.625 15.0625 C-32.25449609 15.48336328 -34.93772343 14.93038177 -38.625 12.0625 C-39.8125 9.9375 -39.8125 9.9375 -40.625 8.0625 C-41.285 7.7325 -41.945 7.4025 -42.625 7.0625 C-42.625 6.4025 -42.625 5.7425 -42.625 5.0625 C-45.265 5.3925 -47.905 5.7225 -50.625 6.0625 C-49.305 6.3925 -47.985 6.7225 -46.625 7.0625 C-46.625 8.3825 -46.625 9.7025 -46.625 11.0625 C-46.955 11.3925 -47.285 11.7225 -47.625 12.0625 C-46.965 12.3925 -46.305 12.7225 -45.625 13.0625 C-49.125 16.5625 -49.125 16.5625 -52.625 20.0625 C-52.625 21.0525 -52.625 22.0425 -52.625 23.0625 C-53.615 23.7225 -54.605 24.3825 -55.625 25.0625 C-55.1455537 20.84337253 -54.45874881 18.26586822 -51.625 15.0625 C-53.275 15.3925 -54.925 15.7225 -56.625 16.0625 C-56.295 15.299375 -55.965 14.53625 -55.625 13.75 C-54.45063314 11.07180865 -54.45063314 11.07180865 -54.625 8.0625 C-56.06250191 6.37451173 -56.06250191 6.37451173 -57.625 5.0625 C-55.975 5.3925 -54.325 5.7225 -52.625 6.0625 C-52.625 5.4025 -52.625 4.7425 -52.625 4.0625 C-55.595 3.5675 -55.595 3.5675 -58.625 3.0625 C-58.625 2.7325 -58.625 2.4025 -58.625 2.0625 C-57.14576554 2.20764409 -55.66661704 2.35366422 -54.1875 2.5 C-52.79724609 2.63535156 -52.79724609 2.63535156 -51.37890625 2.7734375 C-49.77974777 2.94129243 -48.18180968 3.12544834 -46.58984375 3.3515625 C-30.02131213 5.65732237 -15.75345471 -0.18317971 0 0 Z " fill="#5F0D72" transform="translate(61.625,24.9375)"/>
<path d="M0 0 C-1.10815825 3.21365891 -1.98529554 3.9914224 -5 5.75 C-8 7 -8 7 -10 7 C-10 7.99 -10 8.98 -10 10 C-9.071875 10.433125 -9.071875 10.433125 -8.125 10.875 C-6 12 -6 12 -4 14 C7.19394627 17.35818388 21.85635664 17.65704705 33 14 C35.37379224 12.22088985 35.37379224 12.22088985 37 10 C37 9.01 37 8.02 37 7 C35.22671235 5.60272683 35.22671235 5.60272683 33 4.4375 C30.75 3.18359375 30.75 3.18359375 29 2 C29 1.34 29 0.68 29 0 C34.7097955 0.41778991 37.60957142 2.57546571 42 6 C41.4868939 10.4896784 40.19436321 12.80563679 37 16 C27.82989977 22.55702742 19.2685078 25.1853485 8 24 C-0.67648259 22.19441913 -7.25259606 17.71713054 -13 11 C-13.7734375 8.71875 -13.7734375 8.71875 -14 7 C-12.70982586 6.01886757 -11.41780894 5.04015801 -10.125 4.0625 C-9.04605469 3.24458984 -9.04605469 3.24458984 -7.9453125 2.41015625 C-4.8353711 0.15576098 -4.0828382 0 0 0 Z " fill="#360838" transform="translate(21,44)"/>
<path d="M0 0 C1.26237731 2.52475462 1.09856404 4.31200466 1.0625 7.125 C1.05347656 8.03507812 1.04445312 8.94515625 1.03515625 9.8828125 C1.02355469 10.58148438 1.01195312 11.28015625 1 12 C3.31 12.99 5.62 13.98 8 15 C7.34 16.32 6.68 17.64 6 19 C-1.54651163 18.10465116 -1.54651163 18.10465116 -4.4375 17.4375 C-10.90284494 16.33366062 -16.6710445 17.04097524 -22.98046875 18.62109375 C-25.53004873 19.09944821 -27.54301592 18.79257551 -30 18 C-30.33 17.01 -30.66 16.02 -31 15 C-28.69 14.01 -26.38 13.02 -24 12 C-23.67 8.7 -23.34 5.4 -23 2 C-22.01 2.33 -21.02 2.66 -20 3 C-20 3.66 -20 4.32 -20 5 C-17.66834966 5.33498301 -17.66834966 5.33498301 -15 5 C-12.68622853 3.10415891 -12.68622853 3.10415891 -11 1 C-10.4225 1.474375 -9.845 1.94875 -9.25 2.4375 C-7.07417916 3.9484867 -5.57397552 4.54036151 -3 5 C-2.690625 4.360625 -2.38125 3.72125 -2.0625 3.0625 C-1 1 -1 1 0 0 Z " fill="#F69845" transform="translate(47,37)"/>
<path d="M0 0 C-0.29377836 3.52534029 -0.72102501 4.74304935 -3.375 7.1875 C-5.23893729 8.47450432 -7.11532943 9.74355295 -9 11 C-7.44098818 13.14579161 -7.44098818 13.14579161 -5 15 C-1.58343976 15.16677282 -1.58343976 15.16677282 2 15 C2.94875 15.33 3.8975 15.66 4.875 16 C11.27732415 18.04874373 16.76469297 17.25532382 23 15 C24.39300003 14.82921072 25.78938348 14.68451744 27.1875 14.5625 C31.09326941 13.98623894 31.60738541 13.77780332 34 11 C33.43410156 10.62488281 32.86820313 10.24976563 32.28515625 9.86328125 C26.21955403 5.63121784 26.21955403 5.63121784 25 2.125 C25 1.42375 25 0.7225 25 0 C31.21974692 0.38873418 36.50603545 2.50603545 41 7 C41.33 5.35 41.66 3.7 42 2 C42.99 2 43.98 2 45 2 C44.63157895 9.24561404 44.63157895 9.24561404 41.75 12.6875 C40.8425 13.450625 39.935 14.21375 39 15 C38.236875 15.825 37.47375 16.65 36.6875 17.5 C29.81299579 23.89488764 21.49377559 27.93476444 12 28.375 C0.83165658 27.83568362 -7.97138077 22.45729506 -15.5 14.5 C-18.39654735 11.10345341 -20 8.62229978 -20 4 C-19.01 3.67 -18.02 3.34 -17 3 C-16.67 4.32 -16.34 5.64 -16 7 C-14.948125 6.1028125 -14.948125 6.1028125 -13.875 5.1875 C-9.40747901 1.78829925 -5.73146425 -0.50571743 0 0 Z M-10.6875 4.8125 C-11.47511719 5.33457031 -12.26273438 5.85664062 -13.07421875 6.39453125 C-15.27267864 7.94106092 -15.27267864 7.94106092 -16 11 C-11.70699704 17.95612005 -5.14036616 22.35947756 2.3125 25.3125 C13.02522699 27.30978808 22.61985192 25.9926429 31.875 20.125 C35.16387446 17.76330823 37.98043943 15.5801301 40 12 C40.48362193 9.41100117 40.48362193 9.41100117 39 7 C35.06521869 3.74332159 32.17302371 2 27 2 C28.13499394 5.29148243 28.99283376 5.9959869 32.125 7.75 C33.07375 8.1625 34.0225 8.575 35 9 C34.43066981 12.3021151 33.6177089 13.89668805 31 16 C19.76500034 19.38316415 5.21092604 19.59856885 -6 16 C-8.5625 13.875 -8.5625 13.875 -10 12 C-10.66 12 -11.32 12 -12 12 C-12 11.01 -12 10.02 -12 9 C-11.0925 8.731875 -10.185 8.46375 -9.25 8.1875 C-6.27008166 7.09868368 -4.31409641 6.13608899 -2 4 C-2 3.34 -2 2.68 -2 2 C-6.2993368 2 -7.26811292 2.48957754 -10.6875 4.8125 Z " fill="#E08462" transform="translate(23,42)"/>
<path d="M0 0 C0.495 1.485 0.495 1.485 1 3 C-0.03447266 3.05607422 -0.03447266 3.05607422 -1.08984375 3.11328125 C-6.66245662 3.50313483 -11.52689188 4.2310598 -16.734375 6.28125 C-28.48619211 10.00941267 -42.57069246 8.48288568 -54.5625 6.625 C-55.38975586 6.49899414 -56.21701172 6.37298828 -57.06933594 6.24316406 C-59.06076512 5.90550524 -61.03378539 5.4623892 -63 5 C-63.33 4.34 -63.66 3.68 -64 3 C-55.09 2.01 -55.09 2.01 -46 1 C-45.67 1.66 -45.34 2.32 -45 3 C-41.7 2.67 -38.4 2.34 -35 2 C-35.33 1.34 -35.66 0.68 -36 0 C-24.12491038 -1.2594792 -11.83162164 -1.97193694 0 0 Z " fill="#7C0098" transform="translate(66,22)"/>
<path d="M0 0 C1.32 0 2.64 0 4 0 C4.79348625 4.87348823 5.11813526 9.52940184 5.09765625 14.46484375 C5.09515869 15.70613037 5.09266113 16.94741699 5.09008789 18.22631836 C5.08098389 19.7810083 5.07187988 21.33569824 5.0625 22.9375 C5.041875 27.908125 5.02125 32.87875 5 38 C-5.23 38 -15.46 38 -26 38 C-26 37.67 -26 37.34 -26 37 C-25.39414062 36.85304687 -24.78828125 36.70609375 -24.1640625 36.5546875 C-14.44089912 33.95187146 -6.71268144 30.16445317 -1.15625 21.5390625 C-0.58390625 20.77722656 -0.58390625 20.77722656 0 20 C0.66 20 1.32 20 2 20 C2.16677282 16.58343976 2.16677282 16.58343976 2 13 C1.34 12.34 0.68 11.68 0 11 C0.33 10.67 0.66 10.34 1 10 C0.91036938 8.30858344 0.75422324 6.62040398 0.5625 4.9375 C0.46066406 4.01839844 0.35882813 3.09929688 0.25390625 2.15234375 C0.12822266 1.08693359 0.12822266 1.08693359 0 0 Z " fill="#2A012E" transform="translate(65,32)"/>
<path d="M0 0 C1.48295341 2.96590682 2.55849894 5.59265348 3.625 8.6875 C7.53272669 18.37124606 13.87261526 23.52049999 23.16796875 27.90625 C25.79297919 28.92004714 28.22795318 29.55404 31 30 C31 30.33 31 30.66 31 31 C20.77 31 10.54 31 0 31 C0 20.77 0 10.54 0 0 Z " fill="#2D0330" transform="translate(0,39)"/>
<path d="M0 0 C9.24 0 18.48 0 28 0 C24.6548167 2.2301222 21.19708176 3.86682669 17.5703125 5.5859375 C11.13563136 9.12599004 8.25556021 13.49943892 4.6484375 19.734375 C4.10445313 20.48203125 3.56046875 21.2296875 3 22 C2.01 22 1.02 22 0 22 C0 14.74 0 7.48 0 0 Z " fill="#29022C" transform="translate(0,0)"/>
<path d="M0 0 C2.09765625 0.45703125 2.09765625 0.45703125 4.16015625 2.70703125 C5.09765625 5.45703125 5.09765625 5.45703125 5.09765625 9.45703125 C12.35765625 9.45703125 19.61765625 9.45703125 27.09765625 9.45703125 C27.59265625 10.44703125 27.59265625 10.44703125 28.09765625 11.45703125 C27.42299316 11.45179443 26.74833008 11.44655762 26.05322266 11.44116211 C22.94304365 11.42014379 19.83287967 11.40729301 16.72265625 11.39453125 C15.66175781 11.38615234 14.60085937 11.37777344 13.5078125 11.36914062 C3.74301843 11.20171373 3.74301843 11.20171373 -5.90234375 12.45703125 C-6.23234375 13.11703125 -6.56234375 13.77703125 -6.90234375 14.45703125 C-9.046875 14.94140625 -9.046875 14.94140625 -11.71484375 15.20703125 C-12.58753906 15.305 -13.46023437 15.40296875 -14.359375 15.50390625 C-16.90234375 15.45703125 -16.90234375 15.45703125 -18.8046875 14.44921875 C-21.8607418 13.00371076 -24.32397069 13.49919394 -27.65234375 13.83203125 C-29.40804688 13.99832031 -29.40804688 13.99832031 -31.19921875 14.16796875 C-32.09125 14.26335938 -32.98328125 14.35875 -33.90234375 14.45703125 C-33.90234375 13.79703125 -33.90234375 13.13703125 -33.90234375 12.45703125 C-31.21540653 12.11851947 -28.52794086 11.78609525 -25.83984375 11.45703125 C-24.7115918 11.31394531 -24.7115918 11.31394531 -23.56054688 11.16796875 C-18.96813058 10.61131223 -14.52813025 10.35874097 -9.90234375 10.45703125 C-9.96421875 9.54953125 -10.02609375 8.64203125 -10.08984375 7.70703125 C-9.90234375 4.45703125 -9.90234375 4.45703125 -8.96484375 2.08203125 C-6.04678265 -0.21704719 -3.64234756 -0.15990794 0 0 Z " fill="#120016" transform="translate(37.90234375,10.54296875)"/>
<path d="M0 0 C9.24 0 18.48 0 28 0 C28 6.6 28 13.2 28 20 C26.68 20 25.36 20 24 20 C22.578125 18.2421875 22.578125 18.2421875 21.25 15.875 C16.04822191 7.59116839 9.05050262 4.15283903 0 1 C0 0.67 0 0.34 0 0 Z " fill="#27022B" transform="translate(42,0)"/>
<path d="M0 0 C0.66 0.33 1.32 0.66 2 1 C2 2.98 2 4.96 2 7 C2.99 7.33 3.98 7.66 5 8 C4.34 9.32 3.68 10.64 3 12 C4.91635217 12.05423638 6.83314925 12.09289963 8.75 12.125 C9.81734375 12.14820313 10.8846875 12.17140625 11.984375 12.1953125 C14.97536415 12.00159559 16.58464129 11.74442573 19 10 C20.29920746 6.45411499 20.29920746 6.45411499 21 3 C23 6 23 6 23.1875 8 C23.92604989 10.45424326 23.92604989 10.45424326 27.5625 11.75 C28.696875 12.1625 29.83125 12.575 31 13 C30.34 14.32 29.68 15.64 29 17 C21.45348837 16.10465116 21.45348837 16.10465116 18.5625 15.4375 C12.09715506 14.33366062 6.3289555 15.04097524 0.01953125 16.62109375 C-2.53004873 17.09944821 -4.54301592 16.79257551 -7 16 C-7.33 15.01 -7.66 14.02 -8 13 C-5.69 12.01 -3.38 11.02 -1 10 C-0.67 6.7 -0.34 3.4 0 0 Z " fill="#F1B262" transform="translate(24,39)"/>
<path d="M0 0 C2.64 0 5.28 0 8 0 C8 0.66 8 1.32 8 2 C8.99 2.33 9.98 2.66 11 3 C11.18369141 3.96679688 11.18369141 3.96679688 11.37109375 4.953125 C11.57863281 5.62859375 11.78617188 6.3040625 12 7 C14.31315325 8.14293555 14.31315325 8.14293555 17.0625 8.75 C17.98160156 8.99234375 18.90070312 9.2346875 19.84765625 9.484375 C20.55792969 9.65453125 21.26820312 9.8246875 22 10 C21.67 10.99 21.34 11.98 21 13 C18.525 12.505 18.525 12.505 16 12 C16 11.34 16 10.68 16 10 C15.34 10 14.68 10 14 10 C13.99742188 10.61488281 13.99484375 11.22976562 13.9921875 11.86328125 C13.87241495 14.36652757 13.66774322 16.58157104 13 19 C10.125 21.125 10.125 21.125 7 22 C6.01 21.67 5.02 21.34 4 21 C4.94875 20.443125 5.8975 19.88625 6.875 19.3125 C10.08878787 16.93429698 10.95565118 15.75965574 12 12 C11.41992188 12.20496094 10.83984375 12.40992188 10.2421875 12.62109375 C5.8378016 14.14009813 1.64322223 15.4047151 -3 16 C-2.18865951 14.85334535 -1.37589184 13.70770041 -0.5625 12.5625 C-0.11003906 11.92441406 0.34242187 11.28632812 0.80859375 10.62890625 C2 9 2 9 3 8 C2.01 7.67 1.02 7.34 0 7 C0.66 6.67 1.32 6.34 2 6 C1.67 5.34 1.34 4.68 1 4 C1.99 4 2.98 4 4 4 C4 3.34 4 2.68 4 2 C2.35 2 0.7 2 -1 2 C-0.67 1.34 -0.34 0.68 0 0 Z " fill="#261817" transform="translate(11,30)"/>
<path d="M0 0 C0 0.66 0 1.32 0 2 C-0.99 2.33 -1.98 2.66 -3 3 C-1.68 3.66 -0.36 4.32 1 5 C-0.32 5.33 -1.64 5.66 -3 6 C-3.78282648 7.79199472 -3.78282648 7.79199472 -4 10 C-2.6083124 12.13344768 -2.6083124 12.13344768 -1 14 C-1 14.66 -1 15.32 -1 16 C-2.65 16 -4.3 16 -6 16 C-4.9790625 17.11375 -4.9790625 17.11375 -3.9375 18.25 C-2 21 -2 21 -2.25 23.3125 C-2.4975 23.869375 -2.745 24.42625 -3 25 C-6 21.25 -6 21.25 -6 19 C-7.6454378 17.31237149 -9.31288577 15.6459651 -11 14 C-11.33 13.34 -11.66 12.68 -12 12 C-11.01 12 -10.02 12 -9 12 C-9.66 11.34 -10.32 10.68 -11 10 C-11 9.01 -11 8.02 -11 7 C-9.68 6.67 -8.36 6.34 -7 6 C-10.82989106 4.19769832 -13.78121808 3.80377759 -18 4 C-18.33 6.64 -18.66 9.28 -19 12 C-22 12 -22 12 -24 11 C-23.34 9.68 -22.68 8.36 -22 7 C-22.66 6.01 -23.32 5.02 -24 4 C-15.80919903 1.08308519 -8.71414306 -0.62867565 0 0 Z " fill="#292025" transform="translate(67,25)"/>
<path d="M0 0 C1.47923446 0.14514409 2.95838296 0.29116422 4.4375 0.4375 C5.67306641 0.55931641 5.67306641 0.55931641 6.93359375 0.68359375 C8.618454 0.85744557 10.3029157 1.03640652 11.98461914 1.23852539 C17.83849185 1.93336055 23.67467905 2.29899517 29.5625 2.5625 C30.47580078 2.60568359 31.38910156 2.64886719 32.33007812 2.69335938 C34.55327991 2.79811757 36.77656707 2.90029017 39 3 C39 3.33 39 3.66 39 4 C37.86820313 4.04898437 36.73640625 4.09796875 35.5703125 4.1484375 C34.08851661 4.22346514 32.606747 4.29901297 31.125 4.375 C30.37863281 4.4059375 29.63226563 4.436875 28.86328125 4.46875 C24.46526812 4.55643831 24.46526812 4.55643831 21 7 C20.67 7.99 20.34 8.98 20 10 C19.71125 9.360625 19.4225 8.72125 19.125 8.0625 C18.17176549 5.84793921 18.17176549 5.84793921 16 5 C16 4.34 16 3.68 16 3 C13.36 3.33 10.72 3.66 8 4 C9.32 4.33 10.64 4.66 12 5 C12 6.32 12 7.64 12 9 C11.67 9.33 11.34 9.66 11 10 C11.66 10.33 12.32 10.66 13 11 C10.66666667 13.33333333 8.33333333 15.66666667 6 18 C6 18.99 6 19.98 6 21 C5.01 21.66 4.02 22.32 3 23 C3.4794463 18.78087253 4.16625119 16.20336822 7 13 C5.35 13.33 3.7 13.66 2 14 C2.33 13.236875 2.66 12.47375 3 11.6875 C4.17436686 9.00930865 4.17436686 9.00930865 4 6 C2.56249809 4.31201173 2.56249809 4.31201173 1 3 C2.65 3.33 4.3 3.66 6 4 C6 3.34 6 2.68 6 2 C3.03 1.505 3.03 1.505 0 1 C0 0.67 0 0.34 0 0 Z " fill="#392C34" transform="translate(3,27)"/>
<path d="M0 0 C1.32 0.33 2.64 0.66 4 1 C3.67 2.65 3.34 4.3 3 6 C5.97 6.495 5.97 6.495 9 7 C9 7.66 9 8.32 9 9 C8.01 9 7.02 9 6 9 C6.99 9.99 7.98 10.98 9 12 C7.68 14.31 6.36 16.62 5 19 C6.65 18.67 8.3 18.34 10 18 C8.84826645 20.46800047 7.95216435 22.04783565 6 24 C4.68 24 3.36 24 2 24 C0.15467286 18.52940419 -0.25309068 13.81180072 -0.125 8.0625 C-0.11597656 7.28326172 -0.10695312 6.50402344 -0.09765625 5.70117188 C-0.07433691 3.80064553 -0.03847586 1.90027992 0 0 Z " fill="#E1277C" transform="translate(0,22)"/>
<path d="M0 0 C0.99 0 1.98 0 3 0 C3.66 0.99 4.32 1.98 5 3 C10.25149701 2.40837377 10.25149701 2.40837377 15.4375 1.4375 C19.28319962 0.78091714 23.10832216 0.92369259 27 1 C26.67 1.66 26.34 2.32 26 3 C28.97 3.495 28.97 3.495 32 4 C31.01 4.66 30.02 5.32 29 6 C28.34 6.66 27.68 7.32 27 8 C21.58204137 8.73684237 17.11205566 7.77810632 12 6 C10.824375 6.0825 9.64875 6.165 8.4375 6.25 C5 6 5 6 3.4453125 4.671875 C2.0625 3 2.0625 3 0 0 Z " fill="#6C5F40" transform="translate(13,52)"/>
<path d="M0 0 C-0.99 0.66 -1.98 1.32 -3 2 C-0.42788678 3.28605661 1.56906966 3.21043941 4.4453125 3.31640625 C5.52167969 3.35830078 6.59804688 3.40019531 7.70703125 3.44335938 C9.39892578 3.50233398 9.39892578 3.50233398 11.125 3.5625 C12.26066406 3.60568359 13.39632812 3.64886719 14.56640625 3.69335938 C17.37747768 3.7996604 20.18863945 3.90169405 23 4 C19.26407354 6.49061764 16.32931693 6.3428489 12 6.3125 C11.21633057 6.30976074 10.43266113 6.30702148 9.62524414 6.30419922 C3.48873623 6.19844975 -2.500247 5.56224099 -8.5625 4.625 C-9.38943359 4.49907471 -10.21636719 4.37314941 -11.06835938 4.2434082 C-13.06010797 3.90562751 -15.033459 3.46246595 -17 3 C-17.33 2.34 -17.66 1.68 -18 1 C-15.56348622 0.63737003 -13.12623023 0.28461036 -10.6875 -0.0625 C-9.99720703 -0.16626953 -9.30691406 -0.27003906 -8.59570312 -0.37695312 C-5.30415164 -0.83808836 -3.19783876 -1.06594625 0 0 Z " fill="#8400A8" transform="translate(20,24)"/>
<path d="M0 0 C2 3 2 3 2.1875 5 C2.92604989 7.45424326 2.92604989 7.45424326 6.5625 8.75 C7.696875 9.1625 8.83125 9.575 10 10 C9.34 11.32 8.68 12.64 8 14 C2.76119922 13.44854729 -1.97350697 12.57077907 -7 11 C-5.625 9 -5.625 9 -4 7 C-3.34 7 -2.68 7 -2 7 C-1.34 4.69 -0.68 2.38 0 0 Z " fill="#F8DA84" transform="translate(45,42)"/>
<path d="M0 0 C2.97 0.495 2.97 0.495 6 1 C5.75 3.375 5.75 3.375 5 6 C2.9375 7.3125 2.9375 7.3125 1 8 C0.67 7.01 0.34 6.02 0 5 C-0.928125 5.185625 -1.85625 5.37125 -2.8125 5.5625 C-6 6 -6 6 -9 5 C-9.33 5.99 -9.66 6.98 -10 8 C-11.65 7.67 -13.3 7.34 -15 7 C-15 6.34 -15 5.68 -15 5 C-15.66 5 -16.32 5 -17 5 C-16 3 -16 3 -14 2 C-11.62876754 1.76970044 -9.25258057 1.58880058 -6.875 1.4375 C-5.59367187 1.35371094 -4.31234375 1.26992188 -2.9921875 1.18359375 C-2.00476562 1.12300781 -1.01734375 1.06242187 0 1 C0 0.67 0 0.34 0 0 Z " fill="#4A1E67" transform="translate(40,29)"/>
<path d="M0 0 C6.52307692 0.61538462 6.52307692 0.61538462 8.9375 2.5625 C9.288125 3.036875 9.63875 3.51125 10 4 C8.35 4 6.7 4 5 4 C5 4.66 5 5.32 5 6 C5.99 6.33 6.98 6.66 8 7 C7.67 7.33 7.34 7.66 7 8 C7.66 8.66 8.32 9.32 9 10 C7.68 10 6.36 10 5 10 C6.175625 11.1446875 6.175625 11.1446875 7.375 12.3125 C10 15 10 15 12 18 C11.44828125 17.70351563 10.8965625 17.40703125 10.328125 17.1015625 C7.83876712 15.92371196 5.3939116 15.14034283 2.75 14.375 C1.85796875 14.11460938 0.9659375 13.85421875 0.046875 13.5859375 C-0.62859375 13.39257812 -1.3040625 13.19921875 -2 13 C-1.34 12.071875 -0.68 11.14375 0 10.1875 C2.26574554 7.20363444 2.26574554 7.20363444 2 4 C1.01 3.67 0.02 3.34 -1 3 C-0.67 2.01 -0.34 1.02 0 0 Z " fill="#D5D7D8" transform="translate(51,28)"/>
<path d="M0 0 C0.99 0.66 1.98 1.32 3 2 C3.33 3.98 3.66 5.96 4 8 C-2.435 8.495 -2.435 8.495 -9 9 C-9.33 7.02 -9.66 5.04 -10 3 C-6.6934797 -0.05217258 -4.45022302 -0.47342798 0 0 Z " fill="#34004F" transform="translate(38,12)"/>
<path d="M0 0 C0.99 0 1.98 0 3 0 C2.63157895 7.24561404 2.63157895 7.24561404 -0.25 10.6875 C-1.1575 11.450625 -2.065 12.21375 -3 13 C-3.763125 13.825 -4.52625 14.65 -5.3125 15.5 C-12.37021122 22.06531276 -20.85633585 26.15298175 -30.625 26.1875 C-31.73875 26.125625 -32.8525 26.06375 -34 26 C-33.67 25.34 -33.34 24.68 -33 24 C-30.51585985 23.50974851 -28.06540263 23.11150532 -25.5625 22.75 C-17.01192093 21.33251415 -10.72521349 18.54782237 -4.375 12.5 C-2.70761195 9.46838537 -2.68285055 7.40935656 -3 4 C-2.34 4.33 -1.68 4.66 -1 5 C-0.67 3.35 -0.34 1.7 0 0 Z " fill="#C6506F" transform="translate(65,44)"/>
<path d="M0 0 C1.32 0 2.64 0 4 0 C4.4260724 2.34339821 4.74589429 4.63364061 5 7 C5.103125 7.95390625 5.20625 8.9078125 5.3125 9.890625 C5.79075987 17.8217678 5.79075987 17.8217678 3.4375 21.328125 C1.70480833 23.04684335 -0.02515122 24.56924221 -2 26 C-2.66 25.67 -3.32 25.34 -4 25 C-2.71937515 23.2925002 -1.38232443 21.62626404 0 20 C0.66 20 1.32 20 2 20 C2.16677282 16.58343976 2.16677282 16.58343976 2 13 C1.34 12.34 0.68 11.68 0 11 C0.33 10.67 0.66 10.34 1 10 C0.91036938 8.30858344 0.75422324 6.62040398 0.5625 4.9375 C0.40974609 3.55884766 0.40974609 3.55884766 0.25390625 2.15234375 C0.17011719 1.44207031 0.08632812 0.73179688 0 0 Z " fill="#320731" transform="translate(65,32)"/>
<path d="M0 0 C2.31 0.33 4.62 0.66 7 1 C6.9175 1.721875 6.835 2.44375 6.75 3.1875 C7.07426559 6.83548794 8.57319587 8.34568298 11 11 C9.7625 11.268125 8.525 11.53625 7.25 11.8125 C3.89716221 12.63881995 1.58904064 13.62671274 -1 16 C-1.66 15.67 -2.32 15.34 -3 15 C1.875 9.125 1.875 9.125 3 8 C2.01 7.67 1.02 7.34 0 7 C0.66 6.67 1.32 6.34 2 6 C1.67 5.34 1.34 4.68 1 4 C1.99 4 2.98 4 4 4 C4 3.34 4 2.68 4 2 C2.35 2 0.7 2 -1 2 C-0.67 1.34 -0.34 0.68 0 0 Z " fill="#D8D7D8" transform="translate(11,30)"/>
<path d="M0 0 C0.66 0.66 1.32 1.32 2 2 C-2.78650857 3.62741292 -6.0703013 4.26108571 -11 3 C-11.66 2.67 -12.32 2.34 -13 2 C-15.21138855 2.08811445 -17.42042185 2.2429784 -19.625 2.4375 C-21.40777344 2.59025391 -21.40777344 2.59025391 -23.2265625 2.74609375 C-24.59941406 2.87177734 -24.59941406 2.87177734 -26 3 C-26 2.34 -26 1.68 -26 1 C-7.47449421 -1.57357773 -7.47449421 -1.57357773 0 0 Z " fill="#490245" transform="translate(30,22)"/>
<path d="M0 0 C0.33 0.66 0.66 1.32 1 2 C3.02463255 2.65213292 3.02463255 2.65213292 5 3 C4.48967606 6.77639718 3.79233071 8.44722581 1 11 C1.62648437 11.18175781 2.25296875 11.36351562 2.8984375 11.55078125 C3.71570312 11.80214844 4.53296875 12.05351563 5.375 12.3125 C6.18710937 12.55613281 6.99921875 12.79976562 7.8359375 13.05078125 C10 14 10 14 12 17 C11.154375 16.690625 10.30875 16.38125 9.4375 16.0625 C5.9502146 14.98461179 2.61822465 14.43418696 -1 14 C-2.13732426 10.59598052 -1.83989957 8.22543336 -1.0625 4.75 C-0.86785156 3.85796875 -0.67320313 2.9659375 -0.47265625 2.046875 C-0.31667969 1.37140625 -0.16070312 0.6959375 0 0 Z " fill="#2B1A18" transform="translate(49,29)"/>
<path d="M0 0 C0 0.66 0 1.32 0 2 C-8.91 2.99 -8.91 2.99 -18 4 C-18.33 6.64 -18.66 9.28 -19 12 C-22 12 -22 12 -24 11 C-23.34 9.68 -22.68 8.36 -22 7 C-22.66 6.01 -23.32 5.02 -24 4 C-15.80919903 1.08308519 -8.71414306 -0.62867565 0 0 Z " fill="#12021D" transform="translate(67,25)"/>
<path d="M0 0 C1.47923446 0.14514409 2.95838296 0.29116422 4.4375 0.4375 C5.67306641 0.55931641 5.67306641 0.55931641 6.93359375 0.68359375 C8.618454 0.85744557 10.3029157 1.03640652 11.98461914 1.23852539 C17.83849185 1.93336055 23.67467905 2.29899517 29.5625 2.5625 C30.47580078 2.60568359 31.38910156 2.64886719 32.33007812 2.69335938 C34.55327991 2.79811757 36.77656707 2.90029017 39 3 C39 3.33 39 3.66 39 4 C37.86820313 4.04898437 36.73640625 4.09796875 35.5703125 4.1484375 C34.08851661 4.22346514 32.606747 4.29901297 31.125 4.375 C30.37863281 4.4059375 29.63226563 4.436875 28.86328125 4.46875 C24.46526812 4.55643831 24.46526812 4.55643831 21 7 C20.67 7.99 20.34 8.98 20 10 C19.71125 9.360625 19.4225 8.72125 19.125 8.0625 C18.17176549 5.84793921 18.17176549 5.84793921 16 5 C16 4.34 16 3.68 16 3 C11.545 3.495 11.545 3.495 7 4 C7 3.34 7 2.68 7 2 C4.69 1.67 2.38 1.34 0 1 C0 0.67 0 0.34 0 0 Z " fill="#0D030F" transform="translate(3,27)"/>
<path d="M0 0 C5.70709064 0.46588495 9.15939723 1.93757784 14 5 C14 5.66 14 6.32 14 7 C13.505 6.731875 13.01 6.46375 12.5 6.1875 C9.0763054 4.56124507 5.55867715 3.30484829 2 2 C4.75520215 4.95929119 7.46627288 7.03681826 11 9 C10.65120368 12.25543229 9.97866739 13.01873107 7.4375 15.25 C6.633125 15.8275 5.82875 16.405 5 17 C4.01 16.34 3.02 15.68 2 15 C2.78375 14.71125 3.5675 14.4225 4.375 14.125 C7.09671632 13.15087746 7.09671632 13.15087746 9 11 C8.43410156 10.62488281 7.86820313 10.24976563 7.28515625 9.86328125 C1.21955403 5.63121784 1.21955403 5.63121784 0 2.125 C0 1.42375 0 0.7225 0 0 Z " fill="#DF6B74" transform="translate(48,42)"/>
<path d="M0 0 C1.98 0 3.96 0 6 0 C6 2.97 6 5.94 6 9 C5.67 9 5.34 9 5 9 C5 6.69 5 4.38 5 2 C4.01 2.33 3.02 2.66 2 3 C2.10699219 3.61488281 2.21398437 4.22976562 2.32421875 4.86328125 C2.44410156 5.67152344 2.56398438 6.47976562 2.6875 7.3125 C2.81511719 8.11300781 2.94273438 8.91351563 3.07421875 9.73828125 C3 12 3 12 1.51953125 13.79296875 C1.01808594 14.19128906 0.51664062 14.58960938 0 15 C-1.32 13.35 -2.64 11.7 -4 10 C-1.03 10.495 -1.03 10.495 2 11 C0.47793991 8.37098712 -0.84365964 6.15634036 -3 4 C-2.34 3.67 -1.68 3.34 -1 3 C-0.67 2.01 -0.34 1.02 0 0 Z " fill="#DA1F96" transform="translate(64,30)"/>
<path d="M0 0 C8.25 0 16.5 0 25 0 C25 0.66 25 1.32 25 2 C23.948125 2.07347656 23.948125 2.07347656 22.875 2.1484375 C17.03265841 2.60883942 11.63906038 3.40403951 6 5 C6 4.34 6 3.68 6 3 C6.66 2.67 7.32 2.34 8 2 C5.36 1.67 2.72 1.34 0 1 C0 0.67 0 0.34 0 0 Z " fill="#61019F" transform="translate(42,23)"/>
<path d="M0 0 C1.32 0.33 2.64 0.66 4 1 C3.83628906 1.63292969 3.67257812 2.26585937 3.50390625 2.91796875 C2.82546399 7.06751093 2.89444625 11.11641498 2.9375 15.3125 C2.94201172 16.14845703 2.94652344 16.98441406 2.95117188 17.84570312 C2.96289452 19.89716649 2.98082797 21.94859273 3 24 C0.46505082 20.19757624 -0.13181134 17.39909702 -0.09765625 12.890625 C-0.09443359 12.13652344 -0.09121094 11.38242187 -0.08789062 10.60546875 C-0.07951172 9.82816406 -0.07113281 9.05085938 -0.0625 8.25 C-0.05798828 7.45722656 -0.05347656 6.66445313 -0.04882812 5.84765625 C-0.03708565 3.89840492 -0.01915146 1.94919262 0 0 Z " fill="#BB446F" transform="translate(0,22)"/>
<path d="M0 0 C-0.639375 0.28875 -1.27875 0.5775 -1.9375 0.875 C-4.15206079 1.82823451 -4.15206079 1.82823451 -5 4 C-9.82360189 4.19294408 -13.49646738 3.75747614 -18 2 C-18 1.67 -18 1.34 -18 1 C-15.56348622 0.63737003 -13.12623023 0.28461036 -10.6875 -0.0625 C-9.99720703 -0.16626953 -9.30691406 -0.27003906 -8.59570312 -0.37695312 C-5.30415164 -0.83808836 -3.19783876 -1.06594625 0 0 Z " fill="#D603E2" transform="translate(20,24)"/>
<path d="M0 0 C0.66 0.33 1.32 0.66 2 1 C2 1.66 2 2.32 2 3 C3.32 3 4.64 3 6 3 C6 6.3 6 9.6 6 13 C3.69 12.67 1.38 12.34 -1 12 C-0.67 11.34 -0.34 10.68 0 10 C0.99 10 1.98 10 3 10 C2.01 6.7 1.02 3.4 0 0 Z " fill="#A01C8E" transform="translate(64,17)"/>
<path d="M0 0 C3.3 0.33 6.6 0.66 10 1 C10.33 1.99 10.66 2.98 11 4 C9.35 4 7.7 4 6 4 C6.680625 4.7425 7.36125 5.485 8.0625 6.25 C10 9 10 9 9.75 11.3125 C9.5025 11.869375 9.255 12.42625 9 13 C6 9.25 6 9.25 6 7 C4.3545622 5.31237149 2.68711423 3.6459651 1 2 C0.67 1.34 0.34 0.68 0 0 Z " fill="#2B1C21" transform="translate(55,37)"/>
<path d="M0 0 C0.556875 0.350625 1.11375 0.70125 1.6875 1.0625 C4.53886783 2.21845993 6.08517222 1.80967438 9 1 C8.57847656 1.45890625 8.15695312 1.9178125 7.72265625 2.390625 C7.17480469 3.00421875 6.62695312 3.6178125 6.0625 4.25 C5.51722656 4.85328125 4.97195312 5.4565625 4.41015625 6.078125 C2.87848188 7.90500793 2.87848188 7.90500793 2.49609375 10.109375 C2 12 2 12 -1 14 C-0.5205537 9.78087253 0.16625119 7.20336822 3 4 C1.35 4.33 -0.3 4.66 -2 5 C-1.34 3.35 -0.68 1.7 0 0 Z " fill="#2A191E" transform="translate(7,36)"/>
<path d="M0 0 C7 0 7 0 10 1 C10 1.99 10 2.98 10 4 C10.66 4.33 11.32 4.66 12 5 C11.360625 4.814375 10.72125 4.62875 10.0625 4.4375 C9.0415625 4.2209375 9.0415625 4.2209375 8 4 C7.67 4.33 7.34 4.66 7 5 C6.67 4.34 6.34 3.68 6 3 C5.01 3 4.02 3 3 3 C3 3.66 3 4.32 3 5 C1.02 5 -0.96 5 -3 5 C-2.34 4.67 -1.68 4.34 -1 4 C-0.34786708 1.97536745 -0.34786708 1.97536745 0 0 Z " fill="#1D0D25" transform="translate(31,33)"/>
<path d="M0 0 C4.99911924 0.47610659 7.97832683 2.03162219 12 5 C11.01 5.495 11.01 5.495 10 6 C9.34786708 8.02463255 9.34786708 8.02463255 9 10 C8.67 9.01 8.34 8.02 8 7 C6.13692349 5.62322215 6.13692349 5.62322215 3.9375 4.4375 C1.71484375 3.18359375 1.71484375 3.18359375 0 2 C0 1.34 0 0.68 0 0 Z " fill="#3E0D39" transform="translate(50,44)"/>
<path d="M0 0 C1.32 0 2.64 0 4 0 C4.19573608 1.43640171 4.38127816 2.87419504 4.5625 4.3125 C4.66691406 5.11300781 4.77132812 5.91351563 4.87890625 6.73828125 C5 9 5 9 4 12 C3.01 12.33 2.02 12.66 1 13 C1 12.01 1 11.02 1 10 C0.84739214 8.26953591 0.67951995 6.54037955 0.5 4.8125 C0.4071875 3.91144531 0.314375 3.01039062 0.21875 2.08203125 C0.1465625 1.39496094 0.074375 0.70789062 0 0 Z " fill="#601946" transform="translate(65,32)"/>
<path d="M0 0 C1.99788438 0.34578768 3.99759451 0.68143549 6 1 C2.99382731 4.00617269 0.17618402 3.59585316 -4 4 C-4.66 2.68 -5.32 1.36 -6 0 C-3.42888996 -1.28555502 -2.73017334 -0.75838148 0 0 Z " fill="#EFC688" transform="translate(22,52)"/>
<path d="M0 0 C5.77281088 1.99828069 8.03084172 3.6555151 11 9 C10.44828125 8.70351563 9.8965625 8.40703125 9.328125 8.1015625 C6.83876712 6.92371196 4.3939116 6.14034283 1.75 5.375 C0.41195312 4.98441406 0.41195312 4.98441406 -0.953125 4.5859375 C-1.62859375 4.39257812 -2.3040625 4.19921875 -3 4 C-2.01 2.68 -1.02 1.36 0 0 Z " fill="#DCDCDC" transform="translate(52,37)"/>
<path d="M0 0 C0.99 0.33 1.98 0.66 3 1 C2.67 4.3 2.34 7.6 2 11 C2.66 11.33 3.32 11.66 4 12 C3.67 12.66 3.34 13.32 3 14 C2.34 14 1.68 14 1 14 C0.06380187 10.84493858 -0.1057123 8.03413498 -0.0625 4.75 C-0.05347656 3.85796875 -0.04445312 2.9659375 -0.03515625 2.046875 C-0.02355469 1.37140625 -0.01195313 0.6959375 0 0 Z " fill="#440A3D" transform="translate(2,32)"/>
<path d="M0 0 C0.99 0 1.98 0 3 0 C3 0.66 3 1.32 3 2 C3.99 2.33 4.98 2.66 6 3 C6.6875 5.0625 6.6875 5.0625 7 7 C5.125 7.625 5.125 7.625 3 8 C0.4345406 5.4345406 0.45953913 3.52313332 0 0 Z " fill="#7A5638" transform="translate(16,30)"/>
<path d="M0 0 C0.99 0 1.98 0 3 0 C2.49701212 4.40114397 0.91227269 6.71195019 -2 10 C-2.99 9.67 -3.98 9.34 -5 9 C-2.25 5.125 -2.25 5.125 0 4 C0 2.68 0 1.36 0 0 Z " fill="#320733" transform="translate(60,50)"/>
<path d="M0 0 C5.52677733 -0.19392201 9.75614911 0.2520497 15 2 C15 2.66 15 3.32 15 4 C9.76119922 3.44854729 5.02649303 2.57077907 0 1 C0 0.67 0 0.34 0 0 Z " fill="#EEDFB8" transform="translate(38,52)"/>
<path d="M0 0 C0.99 0 1.98 0 3 0 C2.67 2.64 2.34 5.28 2 8 C0.68 8.33 -0.64 8.66 -2 9 C-2.33 7.35 -2.66 5.7 -3 4 C-2.01 4.495 -2.01 4.495 -1 5 C-0.67 3.35 -0.34 1.7 0 0 Z " fill="#DA4966" transform="translate(65,44)"/>
<path d="M0 0 C3.7109611 0.31991044 4.99743948 0.7900419 7.625 3.3125 C5.645 3.9725 3.665 4.6325 1.625 5.3125 C1.625 4.6525 1.625 3.9925 1.625 3.3125 C-0.685 2.9825 -2.995 2.6525 -5.375 2.3125 C-3.375 0.3125 -3.375 0.3125 0 0 Z " fill="#2F093A" transform="translate(60.375,26.6875)"/>
<path d="M0 0 C0.33 0.66 0.66 1.32 1 2 C3.02463255 2.65213292 3.02463255 2.65213292 5 3 C4.67 4.65 4.34 6.3 4 8 C3.01 7.34 2.02 6.68 1 6 C0.34 6.66 -0.32 7.32 -1 8 C-0.67 5.36 -0.34 2.72 0 0 Z " fill="#755135" transform="translate(49,29)"/>
<path d="M0 0 C2.125 0.9375 2.125 0.9375 4 2 C4 3.32 4 4.64 4 6 C2.35 5.67 0.7 5.34 -1 5 C-1 4.34 -1 3.68 -1 3 C-1.66 3 -2.32 3 -3 3 C-2 1 -2 1 0 0 Z " fill="#5C4B60" transform="translate(26,31)"/>
<path d="M0 0 C2.97 0 5.94 0 9 0 C8.34 1.32 7.68 2.64 7 4 C4.625 3.6875 4.625 3.6875 2 3 C1.34 2.01 0.68 1.02 0 0 Z " fill="#562D1C" transform="translate(31,53)"/>
<path d="M0 0 C0.66 1.32 1.32 2.64 2 4 C3.32 3.34 4.64 2.68 6 2 C4.1875 4.5 4.1875 4.5 2 7 C1.01 7 0.02 7 -1 7 C-1.33 5.02 -1.66 3.04 -2 1 C-1.34 0.67 -0.68 0.34 0 0 Z " fill="#E27C79" transform="translate(5,45)"/>
<path d="M0 0 C1.051875 0.474375 2.10375 0.94875 3.1875 1.4375 C6.10175851 2.69323741 8.84746914 3.52234381 12 4 C11.67 4.99 11.34 5.98 11 7 C9.35 6.67 7.7 6.34 6 6 C6 5.34 6 4.68 6 4 C4.68 4 3.36 4 2 4 C2 3.34 2 2.68 2 2 C1.34 2 0.68 2 0 2 C0 1.34 0 0.68 0 0 Z " fill="#4B2B1F" transform="translate(21,36)"/>
<path d="M0 0 C2.31 0.33 4.62 0.66 7 1 C7 1.66 7 2.32 7 3 C6.01 3 5.02 3 4 3 C4.66 3.66 5.32 4.32 6 5 C2 5 2 5 0 4 C0 2.68 0 1.36 0 0 Z " fill="#AE0B8F" transform="translate(2,28)"/>
<path d="M0 0 C1.670625 0.37125 1.670625 0.37125 3.375 0.75 C3.705 1.41 4.035 2.07 4.375 2.75 C1.60399606 4.13550197 -0.5584706 3.9377467 -3.625 3.75 C-4.615 3.09 -5.605 2.43 -6.625 1.75 C-3.625 -0.25 -3.625 -0.25 0 0 Z " fill="#6D0079" transform="translate(21.625,24.25)"/>
<path d="M0 0 C2.31 0.33 4.62 0.66 7 1 C7 1.66 7 2.32 7 3 C4.36 3 1.72 3 -1 3 C-0.67 2.01 -0.34 1.02 0 0 Z " fill="#BBC4C8" transform="translate(51,28)"/>
<path d="M0 0 C0.33 0.99 0.66 1.98 1 3 C0.01 3.99 -0.98 4.98 -2 6 C-3.32 4.35 -4.64 2.7 -6 1 C-3.03 1.495 -3.03 1.495 0 2 C0 1.34 0 0.68 0 0 Z " fill="#E64197" transform="translate(66,39)"/>
<path d="M0 0 C1.43088528 2.86177057 0.59991697 4.93375773 0 8 C-0.99 8.33 -1.98 8.66 -3 9 C-3.36923077 3.46153846 -3.36923077 3.46153846 -1.5 1.125 C-1.005 0.75375 -0.51 0.3825 0 0 Z " fill="#C88841" transform="translate(47,37)"/>
<path d="M0 0 C0.99 0 1.98 0 3 0 C3 0.66 3 1.32 3 2 C3.66 2.33 4.32 2.66 5 3 C5 4.65 5 6.3 5 8 C2.5 5.6875 2.5 5.6875 0 3 C0 2.01 0 1.02 0 0 Z " fill="#241420" transform="translate(19,29)"/>
<path d="M0 0 C3.375 -0.1875 3.375 -0.1875 7 0 C7.66 0.99 8.32 1.98 9 3 C2.25 2.25 2.25 2.25 0 0 Z " fill="#44393F" transform="translate(56,35)"/>
<path d="M0 0 C0.99 0.33 1.98 0.66 3 1 C3 1.99 3 2.98 3 4 C3.66 4.33 4.32 4.66 5 5 C4.360625 4.814375 3.72125 4.62875 3.0625 4.4375 C2.0415625 4.2209375 2.0415625 4.2209375 1 4 C0.67 4.33 0.34 4.66 0 5 C-0.5625 3.0625 -0.5625 3.0625 -1 1 C-0.67 0.67 -0.34 0.34 0 0 Z " fill="#08030D" transform="translate(38,33)"/>
</svg>
